/* XPM */
static char * 16_1_xpm[] = {
"16 16 17 1",
" 	c None",
".	c #917FEB",
"+	c #866EFC",
"@	c #6E52FC",
"#	c #7A62F0",
"$	c #5335EC",
"%	c #62606A",
"&	c #B3AAF6",
"*	c #9D90EE",
"=	c #3914F4",
"-	c #FE0204",
";	c #6040FC",
">	c #4624F6",
",	c #2C05ED",
"'	c #210B91",
")	c #464644",
"!	c #4F4F4F",
"                ",
"                ",
"      .+@       ",
"    ....#@$     ",
"   %..&*#@$=--  ",
"  -+.**.#;$= -- ",
" --#+++#@;>, -- ",
" - @##@@;-----  ",
" ------------   ",
"  -------,,'    ",
"    =,,,,,'     ",
"     ',,,'      ",
"                ",
"     )!!!%)     ",
"      !!!)      ",
"                "};
