/* XPM */
static char * 128_xpm[] = {
"128 128 17 1",
" 	c None",
".	c #2A04F0",
"+	c #7E7E7C",
"@	c #FE0204",
"#	c #5F3FFC",
"$	c #4823FC",
"%	c #BCAFFA",
"&	c #A594FC",
"*	c #775BFC",
"=	c #3D15FC",
"-	c #DCD1E3",
";	c #9A86FC",
">	c #5533FC",
",	c #8D78FC",
"'	c #6A4EFC",
")	c #B0A1FC",
"!	c #836AFC",
"                                                                                                                                ",
"                                                                                                                                ",
"                                                                                                                                ",
"                                                                                                                                ",
"                                                                                                                                ",
"                                                                                                                                ",
"                                                                                                                                ",
"                                                                                                                                ",
"                                                                                                                                ",
"                                                                                                                                ",
"                                                                                                                                ",
"                                                                                                                                ",
"                                                                                                                                ",
"                                                                                                                                ",
"                                                                                                                                ",
"                                                                                                                                ",
"                                                                                                                                ",
"                                                                                                                                ",
"                                                                                                                                ",
"                                                                                                                                ",
"                                                                                                                                ",
"                                                                                                                                ",
"                                                                                                                                ",
"                                                        ,,,,,!!!!***                                                            ",
"                                                    ;;;;;,,,,,,!!!!*!*''                                                        ",
"                                                 &;&;&;;;;,;,,,,,!!!!****''                                                     ",
"                                               &&&&&;&;&;;;,;,,!,!!!*!***'''#                                                   ",
"                                             &&&&&&&&&&&;;;;;,,,!,!!*!****'''##                                                 ",
"                                           &&&)&)&)&&&;&&;;;;,;,,!,!!!**'*''''##>                                               ",
"                                          &&&)&)))&))&&&&&;;;;,,,,!!!*!***''''###>                                              ",
"                                        ;&)))))))))))&)&&&;;;;,,,,!!!!*****''''##>>>                                            ",
"                                       &&&&&))%)))))))&&&&&;;;;,,,,!!*!***''#'####>>$                                           ",
"                                      &&&)))))%%%%))%))&&&&;;;;,,,,!!!!****''''###>>>$                                          ",
"                                     &;&&)))%)%%%%%%))))&&&&;;;,,,,,!!!****'''###>#>$>$                                         ",
"                                    ;&&&&)))%%%%%%%%%))&&&&&;;;;,,!,!!!****''''###>>>$$$                                        ",
"                                   ;;;&&&)))%%%---%%%))))&&&;;;;,,,!!!!****'''#'#>#>>>$$=                                       ",
"                                   ;&&&&))))%%-----%)%))&&&&;;;,;,,,!!!*****'''###>#>>$$$             @@@                       ",
"                                  ;;;&&&&)))%%%---%%%))&)&&&;;;;,,!!!!!!**'''''###>>>>>$$=       @@@@@@@@                       ",
"                                 ;;;;;&&)&))%%%%%%%%%)))&&&&;;;,,,,,!!*****'''#'##>>>$$$$$= @@@@@@@@@@@@                        ",
"                                ,,;;;&&&&))))%%%%%%%)))&)&;&;;;;,,,!!!!!***''''##>>>>$>$$$== @@@@@@@@@@@@@@                     ",
"                                ,,;;;;&&&))))%%%%)%)%))&&&&;;;;,,,!!!!***'*'''####>>>$>$$$==  @@@@@@@@@@@@@@@@                  ",
"                               ,,,;;;;;&&&&))))))%)))))&&&&;;;,;,,,!!*!***''''####>>>$$$$====  @@@@@@@@@@@@@@@@@                ",
"                               ,,,,;;&;&&&&)))))))))&&)&&;&;;;,,,,!,!!*!***'''###>>>>$$$$===.   @@@@@@@@@@@@@@@@@@              ",
"                              !,,,,;;;;;&&&&&))))))&)&&&;&;;;;;,,,!!!!***'''#'###>>>>>$$$$===.  @@@@@@@@@@@@@@@@@@@             ",
"                              !,,,,,;;;;&&&&&&&)&)&&&&&&;;;;,,,,,!!!!*****''''##>#>>$$$$=====.   @@@@@@@@@@@@@@@@@@@            ",
"                             !!!,,,,;;;;;;&&&&&&&&&&&&&;&;;;;;,,!,!!!!****'''####>>>>$$$$====..   @@@   @@@@@@@@@@@@@           ",
"                             !!,,,,,,;;;;;;&&&&&&&&&;&;;;;;,,,,,!!!!*!**'*'''###>>>$>$$$=$===..    @@     @@@@@@@@@@@           ",
"                             !!!!,,,,,,;;;;;;;;;&;&;&;;;;;;;,,,,,!!*!**'*''''####>>>$$$$===.=..     @        @@@@@@@@           ",
"                            **!!!!,,,;,;;;;;;&;;&;;;;;;;;,,,,,!!!!!*!***'''#'##>#>>>$>$=$====...              @@@@@@@           ",
"                            *!*!!!!,,,,,,,;;;;;;;;;;;;;;,;,,,,,!!!!*****''''###>>>$>$$$$====....              @@@@@@@           ",
"                            **!!!!,!,,,,;,;,;;;;;;;;;,,;,,,,!!,!!*!***''''#'###>>>>$$$=$===.=...             @@@@@@@@           ",
"                            ****!!!!!,,,,,,,,,;,;,;,;,,,,,,,,!!!!!***'**'''####>>>$>$$$===.=....            @@@@@@@@@           ",
"                      @@@@  ****!!!!!!,,,,,;,,,,,,,,,,,,,,!!!!!******'''''###>>>>>$$$$=$===.=...            @@@@@@@@            ",
"                    @@@@@@ '******!!!!!!,,,,,,,;,;,,,,,,,!!!!!!!!*****''#'####>>>>$$$$=====......         @@@@@@@@@             ",
"                   @@@@@@@ ''*****!!*!!!!!!,,,!,!,,,,!!!!,!!!******''''''####>>>$$>$=$===.=......       @@@@@@@@@@@             ",
"                @@@@@@@@@@ ''''*****!!!!!!!!!!,!,!!!!!,!!!!!*!******''''####>>>>>$$$$=====.......     @@@@@@@@@@@@              ",
"               @@@@@@@@@@@ '''*******!!!!!!!!!!!,!,!!!!!!!*!****'''''''#####>>>>$$$$$===.=.......   @@@@@@@@@@@@                ",
"              @@@@@@@@@@@  '''''''*******!!!!!!!!!!!!*!!**!*******'''#'####>>>>$>$$$======.......@@@@@@@@@@@@@@                 ",
"             @@@@@@@@@@@   #''''*'*****!**!*!!*!!!*!!*!********''''''####>>>>>$$$$=$===.=.......@@@@@@@@@@@@@@                  ",
"            @@@@@@@@@@     ##'''''*'*************!**!*********'*'''#'#####>>>>>$$$$=====.....@@@@@@@@@@@@@@@@                   ",
"            @@@@@@@@@      ###'''''''*'******!************'''''''''####>>>>>$$$$$=$===.=..@@@@@@@@@@@@@@@@@                     ",
"           @@@@@@@@@       #####'''''''*'***'***************'''''#######>>>>$>$$$$====.@@@@@@@@@@@@@@@@@                        ",
"           @@@@@@@         >#####''''''''*'*'*'**'*'*''''''''''#'####>>>>>$$>$$$=$=@@@@@@@@@@@@@@@@@@@                          ",
"          @@@@@@@          >#######''''''''*''*''*'''*''''''''######>#>>>>>$$$$@@@@@@@@@@@@@@@@@@@@@@                           ",
"          @@@@@@            >>#######'''''''''''''''''''''#'#######>>>>>$$$$$@@@@@@@@@@@@@@@@@@@@@                              ",
"          @@@@@@            >>#>########''#'''''''''''''#'########>>>>>@@@@@@@@@@@@@@@@@@@@@@@@@                                ",
"          @@@@@@@           >>>>>##########'#'#''#'############>>>@@@@@@@@@@@@@@@@@@@@@@@@@@@...                                ",
"          @@@@@@@@@         >>>>>>>>#############'#######@@@@@@@@@@@@@@@@@@@@@@@@@@@@@@@@@@.....                                ",
"           @@@@@@@@@@@@     $>>>>>>>>#>#######@@@@@@@@@@@@@@@@@@@@@@@@@@@@@@@@@@@@@@@@@@........                                ",
"           @@@@@@@@@@@@@@@@@@@@@@@@@@@@@@@@@@@@@@@@@@@@@@@@@@@@@@@@@@@@@@@@@@@@@@@@@@..........                                 ",
"            @@@@@@@@@@@@@@@@@@@@@@@@@@@@@@@@@@@@@@@@@@@@@@@@@@@@@@@@@@@@@@@@@@@@...............                                 ",
"             @@@@@@@@@@@@@@@@@@@@@@@@@@@@@@@@@@@@@@@@@@@@@@@@@@@@@@@@@@@@@@@.=.................                                 ",
"               @@@@@@@@@@@@@@@@@@@@@@@@@@@@@@@@@@@@@@@@@@@@@@@@@@@@@@@@=====.=................                                  ",
"                 @@@@@@@@@@@@@@@@@@@@@@@@@@@@@@@@@@@@@@@@@@@@@@@@=$=======.=..................                                  ",
"                     @@@@@@@@@@@@@@@@@@@@@@@@@@@@@@@@@@@@@$$$$=$$======.=....=...............                                   ",
"                           @@@@@@@@@@@@@@@@@@@@@$$$$$$$$$$$=$=$==$=====.=.=..................                                   ",
"                                =@@@@@@@=$$=$$$$$$$$$=$=$=$$=========.=.....................                                    ",
"                                =======$==$$=$==$==$=$$=$========.=.=..=....................                                    ",
"                                 =============$=$================.=........................                                     ",
"                                  =.=.========================.=....=.....................                                      ",
"                                   .==.==.==============.=.=..=..=.......................                                       ",
"                                   ..=..=.=.=.=.==.==.=.=.=..............................                                       ",
"                                    .....=..=.=..=....=.....=...........................                                        ",
"                                     ..........=...=...................................                                         ",
"                                      ................................................                                          ",
"                                       ..............................................                                           ",
"                                        ............................................                                            ",
"                                          ........................................                                              ",
"                                           ......................................                                               ",
"                                             ..................................                                                 ",
"                                               ..............................                                                   ",
"                                                 ..........................                                                     ",
"                                                    ....................                                                        ",
"                                                        ............                                                            ",
"                                                                                                                                ",
"                                                                                                                                ",
"                                                                                                                                ",
"                                                                                                                                ",
"                                                                                                                                ",
"                                                                                                                                ",
"                                                                                                                                ",
"                                                                                                                                ",
"                                                       ++++++++++++++++++++++                                                   ",
"                                               ++++++++++++++++++++++++++++++++++++++                                           ",
"                                           ++++++++++++++++++++++++++++++++++++++++++++++                                       ",
"                                         ++++++++++++++++++++++++++++++++++++++++++++++++++                                     ",
"                                        ++++++++++++++++++++++++++++++++++++++++++++++++++++                                    ",
"                                        ++++++++++++++++++++++++++++++++++++++++++++++++++++                                    ",
"                                         ++++++++++++++++++++++++++++++++++++++++++++++++++                                     ",
"                                           ++++++++++++++++++++++++++++++++++++++++++++++                                       ",
"                                               ++++++++++++++++++++++++++++++++++++++                                           ",
"                                                       ++++++++++++++++++++++                                                   ",
"                                                                                                                                ",
"                                                                                                                                ",
"                                                                                                                                ",
"                                                                                                                                ",
"                                                                                                                                ",
"                                                                                                                                ",
"                                                                                                                                ",
"                                                                                                                                ",
"                                                                                                                                ",
"                                                                                                                                ",
"                                                                                                                                ",
"                                                                                                                                ",
"                                                                                                                                ",
"                                                                                                                                ",
"                                                                                                                                ",
"                                                                                                                                "};
