/* XPM */
static char * 32_xpm[] = {
"32 32 17 1",
" 	c None",
".	c #2A098C",
"+	c #5E5E5C",
"@	c #FE0204",
"#	c #6031F6",
"$	c #5623F4",
"%	c #A389F4",
"&	c #3F06F7",
"*	c #464644",
"=	c #7D7D7B",
"-	c #734AFA",
";	c #B59CFC",
">	c #8159FC",
",	c #9374F9",
"'	c #3502DC",
")	c #8766F6",
"!	c #683CF6",
"                                ",
"                                ",
"                                ",
"                                ",
"                                ",
"                                ",
"            =,,,)--             ",
"          =%;%%,))-!#           ",
"         %;;;;%,))-!#$          ",
"        =%;;;;%%)>-!#$$  @@     ",
"        ),%;;%%,)>-!#$& @@@@@   ",
"       >,,%%%%,,)>-!$$&$ @@@@@  ",
"       -)),,,,))>--##$&'    @@  ",
"     @@>>)),,))>>-!$$$''   @@@  ",
"    @@@!->>>>>>--!#$$&'' @@@@   ",
"   @@@ !!-------!#$$&@@@@@@@    ",
"   @@  ##!!-!!!##@@@@@@@@@      ",
"   @@@@$$$##@@@@@@@@@@@.        ",
"    @@@@@@@@@@@@@@@@'''         ",
"       @@@@@@$&&&&''''.         ",
"         ''&&&&&'&''''          ",
"          &'''''''''.           ",
"           .'''''''.            ",
"                                ",
"                                ",
"                                ",
"          +====+=+====+         ",
"           *+=======+*          ",
"                                ",
"                                ",
"                                ",
"                                "};
