/* XPM */
static char * 64_xpm[] = {
"64 64 17 1",
" 	c None",
".	c #21058C",
"+	c #846DFC",
"@	c #C21224",
"#	c #5F3FFC",
"$	c #B1A1FC",
"%	c #3622A4",
"&	c #9E8CFC",
"*	c #2A04EF",
"=	c #3C15FC",
"-	c #5F5E65",
";	c #CCB8F7",
">	c #4C27FC",
",	c #FE0204",
"'	c #7357FC",
")	c #847DA7",
"!	c #622A54",
"                                                                ",
"                                                                ",
"                                                                ",
"                                                                ",
"                                                                ",
"                                                                ",
"                                                                ",
"                                                                ",
"                                                                ",
"                                                                ",
"                                                                ",
"                                                                ",
"                         &))+))++'+'#                           ",
"                       &&&&&&&))++'+''#                         ",
"                     &$$$$$&&&&+)++'''###                       ",
"                    &$$$$$$$&&&&++++'''###                      ",
"                   &$$$$;$$$&&&+&++'''###>>                     ",
"                  &&$$$;;;$$$&&&++++'''####>                    ",
"                 &&&$$;;;;$$&&&&++++''#'#>>>%    ,,,,           ",
"                )&&&$$$;;$$$$&&)&+'+''####>>%=,,,,,,,,,         ",
"                +&&&$$$$$;$&&&&+&++''''##>#>== ,,,,,,,,,,       ",
"               ++)&&&$$$$$$$&&+&++++''###>>>%=* ,,,,,,,,,,      ",
"               ++&)&&&&$&&&&&&&+++''''####>>===  ,,,,,,,,,,     ",
"              -+++)&&&&&&$&&&+&++++'''###>>>==*%  ,  ,,,,,,     ",
"              '+++&+&&&&&&&&+&+++''''###>>>>==**       ,,,,     ",
"              ''+++++&+&&+&+&+++'+'''####>>===**       ,,,,     ",
"          ,,,@''++++++&+++&+++++'''#'##>>>>==***      ,,,,,     ",
"         ,,,,@''''+++++&++++++'+'''#####>>>==***     ,,,,,      ",
"        ,,,,,@''''+'++++++++'+''''#'##>>>>===***   ,,,,,,       ",
"       ,,,,,,!##''''''''+'+'''''#'####>>>===****.,,,,,,,        ",
"      ,,,,,   #'#'''''''''''''''####>>>>=>=***,,,,,,,,,         ",
"     ,,,,,    #####'''''''''''#####>#>>>==,,,,,,,,,,,           ",
"     ,,,,     ######'#'#'#'#######>#>>=,,,,,,,,,,,,             ",
"     ,,,,     >##################,,,,,,,,,,,,,,,                ",
"      ,,,,,,  >>>#######,,,,,,,,,,,,,,,,,,,,,,**                ",
"      ,,,,,,,,,,,,,,,,,,,,,,,,,,,,,,,,,,,,,***.                 ",
"       ,,,,,,,,,,,,,,,,,,,,,,,,,,,,,,,,********                 ",
"         ,,,,,,,,,,,,,,,,,,,,,,,,===**********                  ",
"              ,,,,,,,,,,=========*=**********.                  ",
"                 ========>=====*=************                   ",
"                 %**=========*=***********.*.                   ",
"                  *************************.                    ",
"                   %********************.*.                     ",
"                     ********************                       ",
"                      **************.*.*                        ",
"                        *************.                          ",
"                           ***.*.*.                             ",
"                                                                ",
"                                                                ",
"                                                                ",
"                                                                ",
"                          -))))))))))))-                        ",
"                     -))))))))))))))))))))))-                   ",
"                    ))))))))))))))))))))))))))                  ",
"                     -))))))))))))))))))))))-                   ",
"                          -))))))))))))-                        ",
"                                                                ",
"                                                                ",
"                                                                ",
"                                                                ",
"                                                                ",
"                                                                ",
"                                                                ",
"                                                                "};
