/* XPM */
static char *doc_p[] = {
/* width height num_colors chars_per_pixel */
"    16    14       4            2",
/* colors */
"  	c	None",
"##	c	#000000",
"--	c	#ffffff",
"**	c	gray50",
/* pixels */
"  ####################          ",
"  ##--------------##--##        ",
"  ##--************##----##      ",
"  ##--------------##------##    ",
"  ##--************##########**  ",
"  ##----------------------##**  ",
"  ##--******************--##**  ",
"  ##----------------------##**  ",
"  ##--******************--##**  ",
"  ##----------------------##**  ",
"  ##--******************--##**  ",
"  ##----------------------##**  ",
"  ##########################**  ",
"  ****************************  "
};
