/* XPM */
static char *error[] = {
/* width height num_colors chars_per_pixel */
"45 50 2 1",
/* colors */
", c ",
"d c #ce2222",
/* pixels */
",,,,,,,,,,,,,,,,,,,,,,,,,,,,,,,,,,,,,,,,,,,,,",
",,,,,,,,,,,,,,,,,,,,,,,,,,,,,,,,,,,,,,,,,,,,,",
",,,,,,,,,,,,,,,,,,,,,,,,,,,,,,,,,,,,,,,,,,,,,",
",,,,,,,,,,,,,,,,,,,,,,,,,,,,,,,,,,,,,,,,,,,,,",
",,,,,,,,,,,,,,,,,,,,,,,,,,,,,,,,,,,,,,,,,,,,,",
",,,,,,,,,,,,,,,,,,,,,,,,,,,,,,,,,,,,,,,,,,,,,",
",,,,,,,,,,,,,,,,,,,,,,,,,,,,,,,,,,,,,,,,,,,,,",
",,,,,,,,,,,,,,,,,,,,,,,,,,,,,,,,,,,,,,,,,,,,,",
",,,,,,,,,,,,,,,,,,,,,,,,,,,,,,,,,,,,,,,,,,,,,",
",,,,,,,,,,,,,,,,,,,,,,,,,,,,,,,,,,,,,,,,,,,,,",
",,,,,,,,,,,,,,,,,,ddddddd,,,,,,,,,,,,,,,,,,,,",
",,,,,,,,,,,,,,,ddddddddddddd,,,,,,,,,,,,,,,,,",
",,,,,,,,,,,,,,ddddddddddddddd,,,,,,,,,,,,,,,,",
",,,,,,,,,,,,ddddddddddddddddddd,,,,,,,,,,,,,,",
",,,,,,,,,,,dddddddd,,,,,ddddddddd,,,,,,,,,,,,",
",,,,,,,,,,dddddd,,,,,,,,,,,dddddd,,,,,,,,,,,,",
",,,,,,,,,,ddddddd,,,,,,,,,,,ddddd,,,,,,,,,,,,",
",,,,,,,,,ddddddddd,,,,,,,,,,dddddd,,,,,,,,,,,",
",,,,,,,,ddddddddddd,,,,,,,,,,dddddd,,,,,,,,,,",
",,,,,,,,dddd,ddddddd,,,,,,,,,,ddddd,,,,,,,,,,",
",,,,,,,,dddd,,ddddddd,,,,,,,,,ddddd,,,,,,,,,,",
",,,,,,,ddddd,,,ddddddd,,,,,,,,dddddd,,,,,,,,,",
",,,,,,,dddd,,,,,ddddddd,,,,,,,,ddddd,,,,,,,,,",
",,,,,,,dddd,,,,,,ddddddd,,,,,,,ddddd,,,,,,,,,",
",,,,,,,dddd,,,,,,,ddddddd,,,,,,ddddd,,,,,,,,,",
",,,,,,,dddd,,,,,,,,ddddddd,,,,,ddddd,,,,,,,,,",
",,,,,,,dddd,,,,,,,,,ddddddd,,,,ddddd,,,,,,,,,",
",,,,,,,ddddd,,,,,,,,,ddddddd,,dddddd,,,,,,,,,",
",,,,,,,,dddd,,,,,,,,,,ddddddd,ddddd,,,,,,,,,,",
",,,,,,,,dddd,,,,,,,,,,,dddddddddddd,,,,,,,,,,",
",,,,,,,,ddddd,,,,,,,,,,,ddddddddddd,,,,,,,,,,",
",,,,,,,,,dddddd,,,,,,,,,,ddddddddd,,,,,,,,,,,",
",,,,,,,,,,dddddd,,,,,,,,,,ddddddd,,,,,,,,,,,,",
",,,,,,,,,,ddddddddd,,,,,ddddddddd,,,,,,,,,,,,",
",,,,,,,,,,,ddddddddddddddddddddd,,,,,,,,,,,,,",
",,,,,,,,,,,dddddddddddddddddddd,,,,,,,,,,,,,,",
",,,,,,,,,,,,,,ddddddddddddddd,,,,,,,,,,,,,,,,",
",,,,,,,,,,,,,,,ddddddddddddd,,,,,,,,,,,,,,,,,",
",,,,,,,,,,,,,,,,,,ddddddd,,,,,,,,,,,,,,,,,,,,",
",,,,,,,,,,,,,,,,,,,,,,,,,,,,,,,,,,,,,,,,,,,,,",
",,,,,,,,,,,,,,,,,,,,,,,,,,,,,,,,,,,,,,,,,,,,,",
",,,,,,,,,,,,,,,,,,,,,,,,,,,,,,,,,,,,,,,,,,,,,",
",,,,,,,,,,,,,,,,,,,,,,,,,,,,,,,,,,,,,,,,,,,,,",
",,,,,,,,,,,,,,,,,,,,,,,,,,,,,,,,,,,,,,,,,,,,,",
",,,,,,,,,,,,,,,,,,,,,,,,,,,,,,,,,,,,,,,,,,,,,",
",,,,,,,,,,,,,,,,,,,,,,,,,,,,,,,,,,,,,,,,,,,,,",
",,,,,,,,,,,,,,,,,,,,,,,,,,,,,,,,,,,,,,,,,,,,,",
",,,,,,,,,,,,,,,,,,,,,,,,,,,,,,,,,,,,,,,,,,,,,",
",,,,,,,,,,,,,,,,,,,,,,,,,,,,,,,,,,,,,,,,,,,,,",
",,,,,,,,,,,,,,,,,,,,,,,,,,,,,,,,,,,,,,,,,,,,,",
};
