/* XPM */
static char *photo[] = {
/* width height num_colors chars_per_pixel */
"   103   134       16            1",
/* colors */
". c #05090f",
"# c #050a0a",
"a c #3f353b",
"b c #28211f",
"c c #a26264",
"d c #b44b43",
"e c #ae7482",
"f c #df7a8b",
"g c #afafb0",
"h c #cfa8b5",
"i c #bf8698",
"j c #e898ac",
"k c #f6b1d2",
"l c #f3ddfa",
"m c #cbb2db",
"n c #836d75",
/* pixels */
"ggggggggggggggggggggggggggggggggggggggggggggggggggggggggggggggggggggggggggggggggggggggggggggggggggggggg",
"ggggggggggggggggggggggggggggggggggggggggggggggggggggggggggggggggggggggggggggggggggggggggggggggggggggggg",
"ggggggggggggggggggggggggggggggggggggggggggggggggggggggggggggggggggggggggggggggggggggggggggggggggggggggg",
"ggggggggggggggggggggggggggggggggggggggggggggggggggggggggggggggggggggggggggggggggggggggggggggggggggggggg",
"ggggggggggggggggggggggggggggggggggggggggggggggggggggggggggggggggggggggggggggggggggggggggggggggggggggggg",
"ggggggggggggggggggggggggggggggggggggggggggggggggggggggggggggggggggggggggggggggggggggggggggggggggggggggg",
"ggggggggggggggggggggggggggggggggggggggggggggggggggggggggggggggggggggggggggggggggggggggggggggggggggggggg",
"ggggggggggggggggggggggggggggggggggggggggggggggggggggggggggggggggggggggggggggggggggggggggggggggggggggggg",
"ggggggggggggggggggggggggggggggggggggggggggcab##baggaacggggcaceggggggggggggggggggggggggggggggggggggggggg",
"gggggggggggggggggggggggggggggggggggggggab#########bb#b#bb#bb#bbaggggggggggggggggggggggggggggggggggggggg",
"gggggggggggggggggggggggggggggggggggggcb#######bbbbbbbb#########bbbbgggggggggggggggggggggggggggggggggggg",
"ggggggggggggggggggggggggggggggggggggn######b###b#b####bb###########bagggggggggggggggggggggggggggggggggg",
"gggggggggggggggggggggggggggggggggggc#########bbbbb#bb###b#############ggggggggggggggggggggggggggggggggg",
"gggggggggggggggggggggggggggggggggga##############b#b##b################gggggggggggggggggggggggggggggggg",
"gggggggggggggggggggggggggggggggggi###########bbbbbbbbbb#bb##############cgggggggggggggggggggggggggggggg",
"gggggggggggggggggggggggggggggggggb#########bbbbdaddbddbbd################gggggggggggggggggggggggggggggg",
"ggggggggggggggggggggggggggggggggc#####bbbdddddccccccccdcddbb#############bggggggggggggggggggggggggggggg",
"ggggggggggggggggggggggggggggggcb#####bacccccccdcefeecccccccdbb########b##.bgggggggggggggggggggggggggggg",
"gggggggggggggggggggggggggggga######bdcccfccecicecijfiieicecfcdb############bggggggggggggggggggggggggggg",
"ggggggggggggggggggggggggggb#######dccefficfcfcffifijifjijcefeccbb###########cgggggggggggggggggggggggggg",
"ggggggggggggggggggggggggg########dcfffjfjffifcffjjjjjjijjjiifijcdbb##########gggggggggggggggggggggggggg",
"gggggggggggggggggggggggg#######bdfffjefjjjifjfijjjjjjjjjjjjjijiffcb##########bggggggggggggggggggggggggg",
"ggggggggggggggggggggggg#######bdcffijjjjjjjjjjjjjjkkkkjjjjjjjjfiiccd##########egggggggggggggggggggggggg",
"gggggggggggggggggggggg######bbdffjfjjfjjjjjkjkkkkkjjjkjkjkjjjjjfjiiedd#########gggggggggggggggggggggggg",
"ggggggggggggggggggggg#######bcffjfjjjjjjjjjjkjkjkkjkjkjkjkjjjjjijfifead########bggggggggggggggggggggggg",
"ggggggggggggggggggggbbb###bbccfifjjjjjjkjkkjkkkkkkkkkjkkjkkkjjjjjijeiecb####b###ggggggggggggggggggggggg",
"ggggggggggggggggggggbb####bdcffjjjjjkjkjkkkkkkkkkkkkkjkjjjkkkjjjjjjfifccb#######agggggggggggggggggggggg",
"gggggggggggggggggggb#bb#b#acfjffjjkjjjkjjkjkkkkkkkkjkkkjkjkjkkkjjjijieicdb##b####gggggggggggggggggggggg",
"ggggggggggggggggggg#bbb##bdcffjjjjjjkjjjkkkkkkkkkkkkkkkkjjkkjkjkjjjijfiicb#bb####cggggggggggggggggggggg",
"ggggggggggggggggggb.bbb#baffffjjjjjjkjjkjkkkkkkkkkkkkkkkkjjjkjkkjjjjiiifedbbbb####ggggggggggggggggggggg",
"ggggggggggggggggggb#bbbbbccffjjfjjjkjjjkkkjkkkkkkkkkkkkkkjjjkjkjjjjjjficieabbb####ggggggggggggggggggggg",
"gggggggggggggggggb#..abbaccffjfjjjkjkkjkkkkkkkkkkkkkkkkkkkkjkjkkkjjijiiifecbbb####agggggggggggggggggggg",
"gggggggggggggggggb###a.bccffifjjjjkjkjkkkkkkkkkkkkkkkkkkkkkkkkjjkjjjjjfieeeb.b#####gggggggggggggggggggg",
"ggggggggggggggggg###.b.bdfjffjfjjjkjkkjkkkkklkklklklkkkkkkkkkkkjkjjjjijiieedb######gggggggggggggggggggg",
"ggggggggggggggggg#####banfefjjjjjjjkkkkkkkkkkklkkklkklkkkkkkkjkkjjjjjijifceaab#####bggggggggggggggggggg",
"ggggggggggggggggg####b#acfjfjfjjjkjkkkkkkkklklkklkkklkklkkkkkkkjkkkjjjijiieeab######ggggggggggggggggggg",
"ggggggggggggggggb#####bdcjfjfjjjjkjkkkkkkkkkkkklkklklkkkkkkkkkkjkjjkjjjicieca#######ggggggggggggggggggg",
"gggggggggggggggg######baefffjjjjjkjkkkkkklkklklklkklkkllkkkkkkkkjkhjjjijifecab######ggggggggggggggggggg",
"gggggggggggggggg#####bbdcfgjjfjjkjkkjkkkkkkkkkkklkklklkkkkkkkkkjkjkjjjijcicca#######ggggggggggggggggggg",
"gggggggggggggggi#####b#dcjffjjjjkjkkkkkkkkkkkklkklkkklkklkkkkkkkkkjjjjjijiecbb######ggggggggggggggggggg",
"gggggggggggggggg######bbcfjfjfjjjkjkkkkkklklkklkkklklkkkkkkkkkjkjkjjjjijeiecb#######igggggggggggggggggg",
"gggggggggggggggh######bdcfjfjjjjkjkjkkkkkkkkkklklklkklklklkkkkkkkkjkjjijieeca#######ggggggggggggggggggg",
"ggggggggggggggggb#####bdefffjjjjjkkkkkkkkllllkklkkllklklklklkkkkkkjjjhjifiecb#######ggggggggggggggggggg",
"gggggggggggggggg#######dccfjjjjkjkjkkkklklkkkllkllkklklklkkkkkkkkkhkjjjiiiccc######bggggggggggggggggggg",
"ggggggggggggggggb######dcfffjjjjjjkkkkklklllklkklkklllkllkllkkkkkkkjjjjiiiecab#####gggggggggggggggggggg",
"ggggggggggggggggi#####bbcffjfjjjjkkkkkkkllkkllllklklkllklklklklkkkkkjjjiificcb#####gggggggggggggggggggg",
"ggggggggggggggggg######dccjfjjjjkkkkkkklkllllllllkllllllllkkklkkkkkhkjjjiicicb#####gggggggggggggggggggg",
"ggggggggggggggggg######ccjdfjjjjjjkkklllkklkllllllllllllklllkklkkkkjjjjiiiiecb####ggggggggggggggggggggg",
"gggggggggggggggggb#####dcffjjjjjkkkkkkkkllkllkllllllllkllklklkkkkjjjiiiiffiieab##bggggggggggggggggggggg",
"gggggggggggggggggi#####djdgfjjjjkjkklkklkklklklllklkkllklkkkkjjijihjjfcccciied##baegggggggggggggggggggg",
"ggggggggggggggggggb####ccfffjjfjjjjjjjjkkkklkkkklkllklkkkkjfefefccijiiifciiieb.bdccgggggggggggggggggggg",
"ggggggggggggggggggib###djcffdfjjjjjjjfffijkkkklkklkkkkkkkjfeeeddcdddcfjiiciieb.#eacgggggggggggggggggggg",
"gggggggggggggggggggddb#beffcfgfjjjfgcccccfifjkkkkkllllkkfdeceeeijjjjijccciiiiab#bfegggggggggggggggggggg",
"gggggggggggggggggggcdb#bcjcgdcjjcdddddddddddddcffjjkjjjiicmlkmkmjhjijijiecjjeacb#cijggggggggggggggggggg",
"ggggggggggggggggggddb##dbjffjddfhjhkhhjiklijfjjkkllkkkjjiklllkjiecfecfchieahcic##dfiggggggggggggggggggg",
"ggggggggggggggggggcdbbbcdjjcdjhjjjjjjijhlllkcffkkklkjjjijmklmgnabaaacceejciabbcb#afjggggggggggggggggggg",
"ggggggggggggggggggcfd#bcacgcjjcfcdcaabcilllkjcfddcldaddijjhjmhag.eicadechcca#bcb#djmggggggggggggggggggg",
"ggggggggggggggggggfcdbbcdccdhccdbdgn#gaihhjiiiddckkjiadfifefjmabaeecdaceccadcecb.cigggggggggggggggggggg",
"ggggggggggggggggggdjd#dd##gcfccdacgcbbamjjfjijdijkkkjfdeijfiffjmefececeeeiaiiinb#fjgggggggggggggggggggg",
"gggggggggggggggggggfdbabdddccccddcihinijfjjjffcfjkjkjjbfcjjjffffffffefifchichicabjmgggggggggggggggggggg",
"gggggggggggggggggggfdbdbddnccfccdcffjijjffjjffdjkkkjkjdcjjjfjffffjifijfefhicjiabcfmgggggggggggggggggggg",
"gggggggggggggggggggdfdbdgdcgccdfcfffffffjjjjfjdclkkkkhbfejjjjjfjfkhjjjffcjichieaejggggggggggggggggggggg",
"ggggggggggggggggggggfdbcfdcgdfccjffjijfjjjjffcdejkjkkkbdffjkjjjfjjjjjiifcjedjiacjihgggggggggggggggggggg",
"ggggggggggggggggggggffdccdcgdccjfjfjjfjjjjjfffbhjjjjkjndfijfkkjmfjjjjjjefjiihicajiggggggggggggggggggggg",
"ggggggggggggggggggggdjddgfdjfcffjjjfjjjkjjjfffcjjjjkjjicffjjjfjkfkjjjjifijckhccajiggggggggggggggggggggg",
"gggggggggggggggggggggjdcdjdcjcffjjjjjjkjjjfjfffjfjkkjjfjcjjfkjkjkkjjjjijhjikjencehggggggggggggggggggggg",
"gggggggggggggggggggggfdccjcdhdjjjfjjkjkjjjjjfdffjjjjjjffccjjjkkkjkkjjjjjkchjgeaceiggggggggggggggggggggg",
"gggggggggggggggggggggddccjjdfjfjjjkjkkjkkjjfdffjffkjjjffffdjjkkkkkkkjjjkikkjiieaiiggggggggggggggggggggg",
"ggggggggggggggggggggggddfjjjdjjjjjkjkjkkjkjdfffffkkkkfjffjjdfkkkkkkjjjjjjjhjieccehggggggggggggggggggggg",
"ggggggggggggggggggggggdccjjjjjjjjjkkjkkjjfdfffdjjfkjjjjfcfjkfceeffefdcjjkjjjiieacgggggggggggggggggggggg",
"ggggggggggggggggggggggddgfjjjkjdkkkkkjjfdfjffffjfjkkkjfjfffjkkkkkmkkkkkkhjjifecnegggggggggggggggggggggg",
"gggggggggggggggggggggggddfjjjjkkjjfffdfjkjfffffffkkkkkkffffjjjjkkkkkkkjkjjjieeeaggggggggggggggggggggggg",
"gggggggggggggggggggggggggjfjjjjjkkkkkkkjjjfffjfffkfllkfjfjffjjjkkkklkkkjjjjefeecggggggggggggggggggggggg",
"ggggggggggggggggggggggggdfjfjjkkkkklkkjjjfffjjfffjlkkkkfjijjjkkfkkkkkkkjjjffeeceggggggggggggggggggggggg",
"ggggggggggggggggggggggggfffjjjjjjkkkkkjjjjfdfjjfffkkkkjfffcjjjjjjkkkkkkjjfjefeciggggggggggggggggggggggg",
"ggggggggggggggggggggggggcgfffjkjkkkkkkjkjjjfdfjffkkjkjffefcjjjjkjkkkkkjkjhfeeeeiggggggggggggggggggggggg",
"ggggggggggggggggggggggggcjffjjjjkkkkjjjkjjjjfcddfffffffccffjjkjjjjjkkmkjjjefeecgggggggggggggggggggggggg",
"ggggggggggggggggggggggggcfjffjjjjjjkkjkjjjjfjjfcbffffeeffjjjjjfkjkjjkjkmjjjfeecgggggggggggggggggggggggg",
"gggggggggggggggggggggggggfgfjjjjjkkjjkjjjjjfjfjjjecefmjjhjfjffjjjjjjmkjjjmfefeegggggggggggggggggggggggg",
"gggggggggggggggggggggggggcjffjjjjkjkjjkjjjfjjjjjkfjhjjjkfjjjfjfjfkjjjjkmkfmfeecgggggggggggggggggggggggg",
"gggggggggggggggggggggggggffjfjjjjkkjjjjjjjfjjkkkkjfjjkmkmjjfjfhjjmjjkkjjjjfefeigggggggggggggggggggggggg",
"gggggggggggggggggggggggggdgfjjjjkjhjkjjjffjjjkjkkkkkkkkjkjkfhfejhjkkkkkkmjmfeeggggggggggggggggggggggggg",
"ggggggggggggggggggggggggggcjfgjjjkkkjkjjcdcfffffkkkkkjjffeeeecfejjjkkkmjkfjeeeggggggggggggggggggggggggg",
"ggggggggggggggggggggggggggdgfjjjjkkkkhjfjjdddddddffeffcfddcceehjjjkkmkjkjmifegggggggggggggggggggggggggg",
"gggggggggggggggggggggggggggcffhhkhkkkkjhkffcffffffdfdfffffffffkjjkhkkkkmfjfeegggggggggggggggggggggggggg",
"gggggggggggggggggggggggggggcejfjjjhkkjjjjkjdffffkjkkjkjjffdfejhkkhkkhkhkkieeegggggggggggggggggggggggggg",
"ggggggggggggggggggggggggggggcfgjjjjkhkjfkkjfdfffjkkkkkkffffejkjkhkkjkkhfhfeaagggggggggggggggggggggggggg",
"gggggggggggggggggggggggggggbbcgfjjhjkhkkkjjffffffffjffffffejjjhkjjhjhhjmiee..gggggggggggggggggggggggggg",
"gggggggggggggggggggggggggg##bdcgjjjjjjkjkkkfjfffffffffefijmkjkjjhkjhjjifeen...ggggggggggggggggggggggggg",
"ggggggggggggggggggggggggg###bbccfgjhhjkhkjkjjjjjjjififjjjkkjkjkhjhhjhiheeam.#.agggggggggggggggggggggggg",
"ggggggggggggggggggggggggb###abbcgfjjjkjjkjkkjjkjkkjkjjjkkjkjjkjkjjhjjiieeamg.##gggggggggggggggggggggggg",
"ggggggggggggggggggggggg#####ndbdcgfgjgkhkjkjjkjkkkkkkkkkkkkkkjjhjjihiiieaammn.#.ggggggggggggggggggggggg",
"ggggggggggggggggggggggc#####ghbbacgffjjjjhkjkjjkkkjkkkkkkkfkjjjhiiiiiieaammng....gggggggggggggggggggggg",
"gggggggggggggggggggn########hhebdcccgcjhjjjjjjkfkjkkkkjkjjkkjjhjiciieeianmmnm.#.#.agggggggggggggggggggg",
"ggggggggggggggggn###########ghlcbanccccjjjjjjjjkkkjkjkkkkkfjhjjiceciaianglmnm...###.bgggggggggggggggggg",
"gggggggggggggga###########..hhllcanccgccfjjjjjjfkkkkkkkkjjkjjjiiecicieanlmmnng.####.....bgggggggggggggg",
"gggggggggggga###############hhllhcccccccnfjjfjfkkkkjkkkjkjfhjiiecnnnaanmlmmngm..########...bggggggggggg",
"ggggggggggb################.mhlllgacncgcccgfjjjjkfkkkjkjjfhfheieeaianimlmmmngm..#########.#.#.agggggggg",
"gggggggg#####..############.imllllgcccccccchjfjjjjkjjjjjjiiifieaciainmllmmmnmm...#.#######.####.bgggggg",
"gggggh.####.#######.######..nkklllllccnnnncciiijjjfjjjjjmjhieeenncnimlllmmmgmmn...##.#####.#####.#.aggg",
"gggg#######..######...####..nmlllllllcccnccneiiiejjjjmfiefieeennaeiglllmmmmngmn...#..#.########.#####bn",
"..########..####...#.####...allllllllhcccnccneieeeiiieeeiieeeeneeimlllmlmmmgmmg..#######.############.#",
"########....#.##.#.#######..bmlllllllllcnnncnccieeeeeneninegnnnniglllllmlmmmgmm...####...##############",
"######......#..#.#..#####....lmlllllllllcnnnniennennneeniiieeeeehlllllmlmmmmmmm....#.##################",
"#####...#...........#.####..amlllllllllllcceeniieneeiiieiinnneimlllllmlmlmmmmmm....#....#..############",
"#######...b.........###......mlllllllllllhcnniieeeineiiiiiineihlllllmllmmmmmmml...###.#.#...###########",
"######..b............#####..blmlllllllllllheaccneeeninnnnnniiillllllmlmlmmmmmml........#....###########",
"####.#.............#####.....llllllllllllllkieennaeaaaaeeeiehllllllllmlmlmlmlml.....####.#..###########",
"##....b..............###.....lllllllllllllllliieeeefefiimjimklllllmlmllmmmlmlmm.....#.......###########",
"#..b..........b........#.....llllllllllllllllmjiefeeiiiijjhlllllllllllllmlmlmmlb....#.##..##.########..",
".b....##..b.................blllllllllllllllllljmjmfjmfmjmlllllllmlmmlmmlmlmlmm....#.#.####...#####..##",
".......#...........#.........llllllllllllllllllljijjjfmfmlllllllllllllllmlllmll.b..#..#.#....#.#.##....",
"...b..#........b.......#....bmlllllllllllllllllllkmmmkkkllllllllmlmlmlmmlmmlmml................#.#.#..#",
".......#.............#.......mlllllllllllllllllllllllllllllllllllllmlllmllllmll...............##.#.#.##",
"#....#.#............##.#.....mllllllllllllllllllliajhhllllllllllmlllmlmlllmlmll.............#......####",
"......#...##......##..#...b..gllllllllllllllllllaaaceehllllllllllmlmlllmlmlllmlb....#......b...##...##.",
".......#...#.......#.........nlllllllllllllllllhbbcaccemllllllllllllmlllllmlmll......#...........#.####",
".##.#.#.#..#.....#.#.........nlllllllllllllllliaacceeghhllllllllllmllmllllllmlla...#..#.....#...##.####",
"#...##.....##....#...........amlllllllllllllllacaaciimhigllllllllllllllllllmlll....#....#.#..##.#######",
"..#......##.........#........alllllllllllllllabbaaeaehiianllllllllllllllllllmlla........#...#.#..######",
"####...##.##......#.#........alllllllllllllllbaaabacaeaanblllllllllllllllllmlll.....#.#.##.###..#..####",
"#....#.#.##....##.##.#...b.a..mlllllllllllllabbbbaiehgb..bglllllllllllllmlllmlla.##.###........#.###.##",
"#..#..######...##....#.......almllllllllllllla.b#bceenaabmlmllllllllllllllllmlla....#......####.#####..",
"###.##.####..........#.....a..lllllllllllllllmabb#eimn.anmlllllllllllllllllmllla......###...###########",
"###.#..#.##......#.##..#......llllllllllllllllla.#aeiaanmlllllllllllllllllllmlla...#..#.....#.##.#..##.",
"##..##.#####.............b....mlllllllllllllllllabagg.allllllllllllllllllllmllla...#..#...#.#.#####.###",
".....#.#.#####.........b...b..lllllllllllllmlllla.gebbgmllllllllllllllllllllllla...........###.#.#.####",
".###..####...............b..a.mlllllllllllllllllmammn.allllllllllllllllllmllmlla..#......##.#..########",
"#...###.#............b........mllllllllllllllllliaimaaanlllllllllllllllllllmllla......b...#...#.#..##.#",
".....#..##........#...#.a.....gllllllllllllllllgbaemi.aalllllllllllllllllllmllla....#..........#.######",
"...#.##.#.#.................a.mmlllllllllllllllaabnmebaallllllllllllllllllllllma.........#........#####",
"#...#..##.#...................glllllllllllllllnb.aagna..mlllllllllllllllllmlmlla.......#.....b..#.###.#",
"#.#..#...##........#.......a..gmlllllllllllllgb..baina.aallllllllllllllllllmlll.........#b...##.#.#.###",
"##..#.....##.##...#......b....gmlllllllllllllaabbbahmn.a.mlllllllllllllllllmllla.....###.###..#.#####.#"
};
