/* XPM */
static char *question[] = {
/* width height num_colors chars_per_pixel */
"    45    50       2            1",
/* colors */
"f c None",
"a c #228b22",
/* pixels */
"fffffffffffffffffffffffffffffffffffffffffffff",
"fffffffffffffffffffffffffffffffffffffffffffff",
"fffffffffffffffffffffffffffffffffffffffffffff",
"fffffffffffffffffffffffffffffffffffffffffffff",
"fffffffffffffffffffffffffffffffffffffffffffff",
"fffffffffffffffffffffffffffffffffffffffffffff",
"fffffffffffffffffffffffffffffffffffffffffffff",
"fffffffffffffffffffffffffffffffffffffffffffff",
"fffffffffffffffffffffffffffffffffffffffffffff",
"fffffffffffffffffffffffffffffffffffffffffffff",
"ffffffffffffffffffaaaaaaaafffffffffffffffffff",
"ffffffffffffffffaaaaaaaaaaaafffffffffffffffff",
"fffffffffffffffaaaaaffffaaaaaffffffffffffffff",
"ffffffffffffffaaaaaffffffaaaaafffffffffffffff",
"ffffffffffffffaaaafffffffaaaaafffffffffffffff",
"ffffffffffffffaaaafffffffaaaaafffffffffffffff",
"fffffffffffffffaaaaffffffaaaaafffffffffffffff",
"ffffffffffffffffffffffffaaaaaafffffffffffffff",
"fffffffffffffffffffffffaaaaaaffffffffffffffff",
"ffffffffffffffffffffffaaaaaafffffffffffffffff",
"fffffffffffffffffffffaaaaafffffffffffffffffff",
"ffffffffffffffffffffaaaaaffffffffffffffffffff",
"fffffffffffffffffffaaaaafffffffffffffffffffff",
"ffffffffffffffffffaaaaaffffffffffffffffffffff",
"ffffffffffffffffffaaaaaffffffffffffffffffffff",
"ffffffffffffffffffaaaaaffffffffffffffffffffff",
"ffffffffffffffffffaaaaaffffffffffffffffffffff",
"ffffffffffffffffffaaaaaffffffffffffffffffffff",
"fffffffffffffffffffaaafffffffffffffffffffffff",
"fffffffffffffffffffffffffffffffffffffffffffff",
"fffffffffffffffffffffffffffffffffffffffffffff",
"fffffffffffffffffffffffffffffffffffffffffffff",
"fffffffffffffffffffaaaaffffffffffffffffffffff",
"ffffffffffffffffffaaaaaafffffffffffffffffffff",
"ffffffffffffffffffaaaaaafffffffffffffffffffff",
"ffffffffffffffffffaaaaaafffffffffffffffffffff",
"fffffffffffffffffffaaaaffffffffffffffffffffff",
"fffffffffffffffffffffffffffffffffffffffffffff",
"fffffffffffffffffffffffffffffffffffffffffffff",
"fffffffffffffffffffffffffffffffffffffffffffff",
"fffffffffffffffffffffffffffffffffffffffffffff",
"fffffffffffffffffffffffffffffffffffffffffffff",
"fffffffffffffffffffffffffffffffffffffffffffff",
"fffffffffffffffffffffffffffffffffffffffffffff",
"fffffffffffffffffffffffffffffffffffffffffffff",
"fffffffffffffffffffffffffffffffffffffffffffff",
"fffffffffffffffffffffffffffffffffffffffffffff",
"fffffffffffffffffffffffffffffffffffffffffffff",
"fffffffffffffffffffffffffffffffffffffffffffff",
"fffffffffffffffffffffffffffffffffffffffffffff"
};
