/* XPM */
static char *warning[] = {
/* width height num_colors chars_per_pixel */
"    45    50       3            1",
/* colors */
"e c None",
". c #000000",
"h c #ffff00",
/* pixels */
"eeeeeeeeeeeeeeeeeeeeeeeeeeeeeeeeeeeeeeeeeeeee",
"eeeeeeeeeeeeeeeeeeeeeeeeeeeeeeeeeeeeeeeeeeeee",
"eeeeeeeeeeeeeeeeeeeeeeeeeeeeeeeeeeeeeeeeeeeee",
"eeeeeeeeeeeeeeeeeeeeeeeeeeeeeeeeeeeeeeeeeeeee",
"eeeeeeeeeeeeeeeeeeeeeeeeeeeeeeeeeeeeeeeeeeeee",
"eeeeeeeeeeeeeeeeeeeeeeeeeeeeeeeeeeeeeeeeeeeee",
"eeeeeeeeeeeeeeeeeeeeeeeeeeeeeeeeeeeeeeeeeeeee",
"eeeeeeeeeeeeeeeeeeeeeeeeeeeeeeeeeeeeeeeeeeeee",
"eeeeeeeeeeeeeeeeeee.....eeeeeeeeeeeeeeeeeeeee",
"eeeeeeeeeeeeeeeeee.......eeeeeeeeeeeeeeeeeeee",
"eeeeeeeeeeeeeeeee...hhh...eeeeeeeeeeeeeeeeeee",
"eeeeeeeeeeeeeeee...hhhh...eeeeeeeeeeeeeeeeeee",
"eeeeeeeeeeeeeeee...hhhhh...eeeeeeeeeeeeeeeeee",
"eeeeeeeeeeeeeee...hhhhhh...eeeeeeeeeeeeeeeeee",
"eeeeeeeeeeeeeee...hhhhhhh...eeeeeeeeeeeeeeeee",
"eeeeeeeeeeeeee...hhhhhhhh...eeeeeeeeeeeeeeeee",
"eeeeeeeeeeeeee...hhh...hhh...eeeeeeeeeeeeeeee",
"eeeeeeeeeeeee...hhhh...hhh...eeeeeeeeeeeeeeee",
"eeeeeeeeeeeee...hhhh...hhhh...eeeeeeeeeeeeeee",
"eeeeeeeeeeee...hhhhh...hhhh...eeeeeeeeeeeeeee",
"eeeeeeeeeeee...hhhhh...hhhhh...eeeeeeeeeeeeee",
"eeeeeeeeeee...hhhhhh...hhhhh...eeeeeeeeeeeeee",
"eeeeeeeeeee...hhhhhh...hhhhhh...eeeeeeeeeeeee",
"eeeeeeeeee...hhhhhhh...hhhhhh...eeeeeeeeeeeee",
"eeeeeeeeee...hhhhhhh...hhhhhhh...eeeeeeeeeeee",
"eeeeeeeee...hhhhhhhh...hhhhhhh...eeeeeeeeeeee",
"eeeeeeeee...hhhhhhhh...hhhhhhhh...eeeeeeeeeee",
"eeeeeeee...hhhhhhhhh...hhhhhhhh...eeeeeeeeeee",
"eeeeeeee...hhhhhhhhh...hhhhhhhhh...eeeeeeeeee",
"eeeeeee...hhhhhhhhhhhhhhhhhhhhhh...eeeeeeeeee",
"eeeeeee...hhhhhhhhhhhhhhhhhhhhhhh...eeeeeeeee",
"eeeeee...hhhhhhhhhhhh.hhhhhhhhhhh...eeeeeeeee",
"eeeeee...hhhhhhhhhhh...hhhhhhhhhhh...eeeeeeee",
"eeeee...hhhhhhhhhhhhh.hhhhhhhhhhhh...eeeeeeee",
"eeeee...hhhhhhhhhhhhhhhhhhhhhhhhhhh...eeeeeee",
"eeeee...hhhhhhhhhhhhhhhhhhhhhhhhhhh...eeeeeee",
"eeeeee................................eeeeeee",
"eeeeeeeeee.......................eeeeeeeeeeee",
"eeeeeeeeeeeeeeeeeeeeeeeeeeeeeeeeeeeeeeeeeeeee",
"eeeeeeeeeeeeeeeeeeeeeeeeeeeeeeeeeeeeeeeeeeeee",
"eeeeeeeeeeeeeeeeeeeeeeeeeeeeeeeeeeeeeeeeeeeee",
"eeeeeeeeeeeeeeeeeeeeeeeeeeeeeeeeeeeeeeeeeeeee",
"eeeeeeeeeeeeeeeeeeeeeeeeeeeeeeeeeeeeeeeeeeeee",
"eeeeeeeeeeeeeeeeeeeeeeeeeeeeeeeeeeeeeeeeeeeee",
"eeeeeeeeeeeeeeeeeeeeeeeeeeeeeeeeeeeeeeeeeeeee",
"eeeeeeeeeeeeeeeeeeeeeeeeeeeeeeeeeeeeeeeeeeeee",
"eeeeeeeeeeeeeeeeeeeeeeeeeeeeeeeeeeeeeeeeeeeee",
"eeeeeeeeeeeeeeeeeeeeeeeeeeeeeeeeeeeeeeeeeeeee",
"eeeeeeeeeeeeeeeeeeeeeeeeeeeeeeeeeeeeeeeeeeeee",
"eeeeeeeeeeeeeeeeeeeeeeeeeeeeeeeeeeeeeeeeeeeee"
};
