/* XPM */
static char *link_p[] = {
/* width height num_colors chars_per_pixel */
"    16    14       7            2",
/* colors */
"  	c	None",
"##	c	#000000",
"--	c	#ffffff",
"**	c	gray50",
"hh	c	gray85", /*#c3c3c3",*/
"jj	c	yellow",
"@@	c	red",
/* pixels */
"              ########          ",
"      ******  ----##--##        ",
"    **jjhhjj******##----##      ",
"  **jjhhjjhhjj----##------##    ",
"**------------##@@@@########**  ",
"**hhjjhhjjhhjj----@@@@----##**  ",
"**jj@@@@@@@@@@@@@@@@@@@@--##**  ",
"**hh@@@@@@@@@@@@@@@@@@@@@@##**  ",
"**jj@@@@@@@@@@@@@@@@@@@@--##**  ",
"**hhjjhhjjhhjj----@@@@----##**  ",
"**jjhhjjhhjjhh**@@@@******##**  ",
"**************------------##**  ",
"############################**  ",
"                **************  "
};







